<svg width="37" height="37" viewBox="0 0 37 37" fill="none" xmlns="http://www.w3.org/2000/svg">
<path d="M19.6562 9.63574V21.9691H17.3438V9.63574H19.6562Z" fill="#FC4483"/>
<path d="M19.6562 27.7503V24.667H17.3438V27.7503H19.6562Z" fill="#FC4483"/>
<path fill-rule="evenodd" clip-rule="evenodd" d="M3.46875 18.5C3.46875 10.1985 10.1985 3.46875 18.5 3.46875C26.8016 3.46875 33.5312 10.1985 33.5312 18.5C33.5312 26.8016 26.8016 33.5312 18.5 33.5312C10.1985 33.5312 3.46875 26.8016 3.46875 18.5ZM18.5 5.78125C11.4756 5.78125 5.78125 11.4756 5.78125 18.5C5.78125 25.5243 11.4756 31.2188 18.5 31.2188C25.5243 31.2188 31.2188 25.5243 31.2188 18.5C31.2188 11.4756 25.5243 5.78125 18.5 5.78125Z" fill="#FC4483"/>
</svg>
