<svg width="25" height="25" viewBox="0 0 25 25" fill="none" xmlns="http://www.w3.org/2000/svg">
<path d="M10.5885 12.4327L0.279942 22.7412C0.0846905 22.9365 0.0846905 23.253 0.279942 23.4483L1.34988 24.5182C1.54513 24.7135 1.8617 24.7135 2.05695 24.5182L12.3655 14.2097L22.674 24.5182C22.8693 24.7135 23.1858 24.7135 23.3811 24.5182L24.451 23.4483C24.6463 23.253 24.6463 22.9365 24.451 22.7412L14.1425 12.4327L24.451 2.12415C24.6463 1.9289 24.6463 1.61233 24.451 1.41708L23.3811 0.347138C23.1858 0.151886 22.8693 0.151886 22.674 0.347137L12.3655 10.6557L2.05695 0.347137C1.8617 0.151886 1.54514 0.151886 1.34988 0.347137L0.279943 1.41708C0.0846918 1.61233 0.0846903 1.9289 0.279942 2.12415L10.5885 12.4327Z" fill="white"/>
</svg>
