<svg width="53" height="54" viewBox="0 0 53 54" fill="none" xmlns="http://www.w3.org/2000/svg">
<path d="M17.667 38.042L26.5003 46.8753L35.3337 38.042" stroke="#0187FC" stroke-width="2" stroke-linecap="round" stroke-linejoin="round"/>
<path d="M26.5 27V46.875" stroke="#0187FC" stroke-width="2" stroke-linecap="round" stroke-linejoin="round"/>
<path d="M46.1099 40.4491C48.0299 39.099 49.4696 37.1723 50.2203 34.9485C50.9709 32.7247 50.9935 30.3195 50.2846 28.082C49.5757 25.8446 48.1722 23.8912 46.2779 22.5054C44.3836 21.1196 42.097 20.3735 39.7499 20.3753H36.9674C36.3033 17.7869 35.0605 15.3828 33.3328 13.3442C31.6051 11.3055 29.4374 9.68537 26.9929 8.6057C24.5484 7.52604 21.8908 7.01498 19.2202 7.11102C16.5497 7.20706 13.9357 7.90769 11.575 9.16016C9.21442 10.4126 7.16869 12.1843 5.59186 14.3418C4.01503 16.4993 2.94818 18.9864 2.47164 21.6159C1.99511 24.2453 2.12129 26.9487 2.8407 29.5223C3.56011 32.096 4.85399 34.4729 6.62494 36.4741" stroke="#0187FC" stroke-width="2" stroke-linecap="round" stroke-linejoin="round"/>
</svg>
