<svg width="34" height="34" viewBox="0 0 34 34" fill="none" xmlns="http://www.w3.org/2000/svg">
<path d="M19.8337 2.8335H8.50033C7.74888 2.8335 7.02821 3.13201 6.49686 3.66336C5.9655 4.19471 5.66699 4.91538 5.66699 5.66683V28.3335C5.66699 29.0849 5.9655 29.8056 6.49686 30.337C7.02821 30.8683 7.74888 31.1668 8.50033 31.1668H25.5003C26.2518 31.1668 26.9724 30.8683 27.5038 30.337C28.0351 29.8056 28.3337 29.0849 28.3337 28.3335V11.3335L19.8337 2.8335Z" stroke="#666666" stroke-linecap="round" stroke-linejoin="round"/>
<path d="M19.833 2.8335V11.3335H28.333" stroke="#666666" stroke-linecap="round" stroke-linejoin="round"/>
<path d="M22.6663 18.4165H11.333" stroke="#666666" stroke-linecap="round" stroke-linejoin="round"/>
<path d="M22.6663 24.0835H11.333" stroke="#666666" stroke-linecap="round" stroke-linejoin="round"/>
<path d="M14.1663 12.75H12.7497H11.333" stroke="#666666" stroke-linecap="round" stroke-linejoin="round"/>
</svg>
