<svg width="59" height="59" viewBox="0 0 59 59" fill="none" xmlns="http://www.w3.org/2000/svg">
<path d="M34.4173 4.91602H14.7507C13.4467 4.91602 12.1961 5.43402 11.274 6.35607C10.352 7.27813 9.83398 8.5287 9.83398 9.83268V49.166C9.83398 50.47 10.352 51.7206 11.274 52.6426C12.1961 53.5647 13.4467 54.0827 14.7507 54.0827H44.2506C45.5546 54.0827 46.8052 53.5647 47.7273 52.6426C48.6493 51.7206 49.1673 50.47 49.1673 49.166V19.666L34.4173 4.91602Z" fill="#0187FC" stroke="#666666" stroke-linecap="round" stroke-linejoin="round"/>
<path d="M39.3337 41.792H19.667" stroke="white" stroke-linecap="round" stroke-linejoin="round"/>
<path d="M39.3337 31.958H19.667" stroke="white" stroke-linecap="round" stroke-linejoin="round"/>
<path d="M24.5837 22.125H22.1253H19.667" stroke="white" stroke-linecap="round" stroke-linejoin="round"/>
<path d="M34.417 4.91699V19.667H49.167" stroke="white" stroke-linecap="round" stroke-linejoin="round"/>
</svg>
