<svg width="20" height="21" viewBox="0 0 20 21" fill="none" xmlns="http://www.w3.org/2000/svg">
<path fill-rule="evenodd" clip-rule="evenodd" d="M10 1.20182C10.6115 0.467501 11.5331 0 12.5641 0C14.405 0 15.8974 1.49056 15.8974 3.32927C15.8974 3.9893 15.7051 4.60448 15.3734 5.12195H20V12.8049H18.9744V21H1.02564V12.8049H0V5.12195H4.62657C4.29487 4.60448 4.10256 3.9893 4.10256 3.32927C4.10256 1.49056 5.59494 0 7.4359 0C8.46687 0 9.38851 0.467501 10 1.20182ZM9.23077 3.32927C9.23077 2.3392 8.42718 1.53659 7.4359 1.53659C6.44462 1.53659 5.64103 2.3392 5.64103 3.32927C5.64103 4.31934 6.44462 5.12195 7.4359 5.12195C8.42718 5.12195 9.23077 4.31934 9.23077 3.32927ZM1.53846 6.65854V11.2683H9.23077V6.65854H1.53846ZM14.359 3.32927C14.359 4.31934 13.5554 5.12195 12.5641 5.12195C11.5728 5.12195 10.7692 4.31934 10.7692 3.32927C10.7692 2.3392 11.5728 1.53659 12.5641 1.53659C13.5554 1.53659 14.359 2.3392 14.359 3.32927ZM10.7692 6.65854H18.4615V11.2683H10.7692V6.65854ZM17.4359 12.8049H10.7692V19.4634H17.4359V12.8049ZM9.23077 12.8049H2.5641V19.4634H9.23077V12.8049Z" fill="#0187FC"/>
</svg>
