<svg width="28" height="28" viewBox="0 0 28 28" fill="none" xmlns="http://www.w3.org/2000/svg">
<path fill-rule="evenodd" clip-rule="evenodd" d="M13.9997 7.875C11.9056 7.875 10.208 9.57258 10.208 11.6667C10.208 13.7607 11.9056 15.4583 13.9997 15.4583C16.0937 15.4583 17.7913 13.7607 17.7913 11.6667C17.7913 9.57258 16.0937 7.875 13.9997 7.875ZM11.958 11.6667C11.958 10.5391 12.8721 9.625 13.9997 9.625C15.1273 9.625 16.0413 10.5391 16.0413 11.6667C16.0413 12.7943 15.1273 13.7083 13.9997 13.7083C12.8721 13.7083 11.958 12.7943 11.958 11.6667Z" fill="#0187FC"/>
<path fill-rule="evenodd" clip-rule="evenodd" d="M13.9997 2.625C9.0061 2.625 4.95801 6.67309 4.95801 11.6667C4.95801 13.3194 5.53279 14.9938 6.33226 16.5356C7.13567 18.0851 8.19673 19.5592 9.2409 20.8271C10.2872 22.0976 11.3311 23.1785 12.1124 23.9413C12.5037 24.3231 12.8303 24.6266 13.0605 24.8355C13.1757 24.9401 13.2667 25.021 13.3295 25.0766C13.361 25.1042 13.3855 25.1256 13.4025 25.1403C13.4109 25.1477 13.4175 25.1533 13.4222 25.1574L13.4277 25.1622L13.4293 25.1636L13.4299 25.1641C13.4301 25.1642 13.4302 25.1643 13.9997 24.5L13.4302 25.1643L13.9997 25.6524L14.5691 25.1643L13.9997 24.5C14.5691 25.1643 14.5692 25.1642 14.5695 25.1641L14.5701 25.1636L14.5717 25.1622L14.5772 25.1574C14.5818 25.1533 14.5885 25.1477 14.5969 25.1403C14.6138 25.1256 14.6383 25.1042 14.6698 25.0766C14.7327 25.021 14.8238 24.9401 14.9388 24.8355C15.169 24.6266 15.4957 24.3231 15.887 23.9413C16.6683 23.1785 17.7121 22.0976 18.7584 20.8271C19.8026 19.5592 20.8636 18.0851 21.6671 16.5356C22.4665 14.9938 23.0413 13.3194 23.0413 11.6667C23.0413 6.67309 18.9932 2.625 13.9997 2.625ZM14.6644 22.689C14.4106 22.9369 14.1856 23.1496 13.9997 23.3221C13.8137 23.1496 13.5888 22.9369 13.3349 22.689C12.585 21.9569 11.5871 20.9232 10.5918 19.7146C9.59428 18.5033 8.61368 17.1337 7.88584 15.7301C7.15406 14.3187 6.70801 12.9306 6.70801 11.6667C6.70801 7.63959 9.9726 4.375 13.9997 4.375C18.0268 4.375 21.2913 7.63959 21.2913 11.6667C21.2913 12.9306 20.8453 14.3187 20.1135 15.7301C19.3857 17.1337 18.4051 18.5033 17.4076 19.7146C16.4122 20.9232 15.4144 21.9569 14.6644 22.689Z" fill="#0187FC"/>
</svg>
